arm26_states
version=1
nRows=34
nColumns=17
inDegrees=yes

# SIMM Motion File Header:
name arm26_states
datacolumns 17
datarows 34
otherdata 1
range 0.55259000 0.76209607
endheader
time	/jointset/r_shoulder/r_shoulder_elev/value	/jointset/r_shoulder/r_shoulder_elev/speed	/jointset/r_elbow/r_elbow_flex/value	/jointset/r_elbow/r_elbow_flex/speed	/forceset/TRIlong/activation	/forceset/TRIlong/fiber_length	/forceset/TRIlat/activation	/forceset/TRIlat/fiber_length	/forceset/TRImed/activation	/forceset/TRImed/fiber_length	/forceset/BIClong/activation	/forceset/BIClong/fiber_length	/forceset/BICshort/activation	/forceset/BICshort/fiber_length	/forceset/BRA/activation	/forceset/BRA/fiber_length
      0.55259000	     -2.36078757	      3.50111340	     50.15260664	     11.09417534	     -0.04542987	      0.15480059	      0.03424873	      0.09010734	      0.03424873	      0.08510849	      0.12358388	      0.12868833	      0.01273188	      0.12848806	     -0.04043027	      0.08184575
      0.55863051	     -2.34263734	      2.51414525	     50.21790308	     10.51141685	     -0.04620662	      0.15483798	      0.03530346	      0.09012019	      0.03530346	      0.08512220	      0.12412765	      0.12862638	      0.01235044	      0.12845659	     -0.04116729	      0.08182949
      0.56604407	     -2.32836909	      1.34038069	     50.29291886	      9.71767143	     -0.04715995	      0.15487717	      0.03645087	      0.09013584	      0.03645087	      0.08513894	      0.12490362	      0.12855552	      0.01185268	      0.12842261	     -0.04208269	      0.08181070
      0.57981344	     -2.32461410	     -0.78751684	     50.41643407	      8.23969403	     -0.04893065	      0.15493014	      0.03847907	      0.09016264	      0.03847907	      0.08516760	      0.12652097	      0.12843928	      0.01082932	      0.12837700	     -0.04380587	      0.08177964
      0.58854442	     -2.33734113	     -2.12764370	     50.48467240	      7.41104934	     -0.05005347	      0.15495127	      0.03970551	      0.09017743	      0.03970551	      0.08518340	      0.12764773	      0.12837604	      0.01008170	      0.12836210	     -0.04491363	      0.08176222
      0.59479152	     -2.35362586	     -3.08672142	     50.52932267	      6.89808800	     -0.05085687	      0.15496023	      0.04070488	      0.09018643	      0.04070488	      0.08519308	      0.12842944	      0.12833589	      0.00950912	      0.12835035	     -0.04570884	      0.08175100
      0.60103862	     -2.37591659	     -4.05054703	     50.57104233	      6.47427380	     -0.05166029	      0.15496447	      0.04178968	      0.09019373	      0.04178968	      0.08520105	      0.12918733	      0.12830006	      0.00888820	      0.12833058	     -0.04650483	      0.08174045
      0.61001709	     -2.41851452	     -5.43681095	     50.62697991	      6.00540486	     -0.05281502	      0.15496286	      0.04355036	      0.09020137	      0.04355036	      0.08520971	      0.13020432	      0.12825592	      0.00793842	      0.12830103	     -0.04764903	      0.08172638
      0.61408160	     -2.44187467	     -6.05604998	     50.65102045	      5.82354009	     -0.05333774	      0.15495699	      0.04462001	      0.09020330	      0.04462001	      0.08521213	      0.13055635	      0.12823886	      0.00753734	      0.12828858	     -0.04816183	      0.08172033
      0.61901246	     -2.47354757	     -6.78559159	     50.67914890	      5.57769172	     -0.05397187	      0.15494881	      0.04609271	      0.09020371	      0.04609271	      0.08521328	      0.13090273	      0.12822080	      0.00710554	      0.12827456	     -0.04877670	      0.08171325
      0.62394333	     -2.50873114	     -7.47877220	     50.70591634	      5.26786574	     -0.05460604	      0.15493799	      0.04724875	      0.09020297	      0.04724875	      0.08521355	      0.13135923	      0.12820530	      0.00665032	      0.12826187	     -0.04939708	      0.08170648
      0.63087065	     -2.56374205	     -8.39291616	     50.74061342	      4.73408859	     -0.05549702	      0.15491826	      0.04874488	      0.09020202	      0.04874488	      0.08521392	      0.13206956	      0.12818719	      0.00597192	      0.12824655	     -0.05027430	      0.08169761
      0.63779798	     -2.62487167	     -9.24612898	     50.77132023	      4.11968339	     -0.05638797	      0.15489327	      0.05033327	      0.09020024	      0.05033327	      0.08521354	      0.13276895	      0.12817343	      0.00527432	      0.12823456	     -0.05114939	      0.08168966
      0.64982458	     -2.74432177	    -10.58954494	     50.81372957	      2.90552313	     -0.05793480	      0.15483769	      0.05311332	      0.09019366	      0.05311332	      0.08520901	      0.13398034	      0.12816045	      0.00400741	      0.12822256	     -0.05267129	      0.08167845
      0.65692706	     -2.82210666	    -11.30491858	     50.83161855	      2.12732152	     -0.05884836	      0.15479728	      0.05469927	      0.09018773	      0.05469927	      0.08520420	      0.13471829	      0.12815936	      0.00320920	      0.12822111	     -0.05357581	      0.08167354
      0.66305224	     -2.89314139	    -11.88470247	     50.84258382	      1.45670023	     -0.05963625	      0.15475946	      0.05611042	      0.09018133	      0.05611042	      0.08519873	      0.13534680	      0.12816115	      0.00249213	      0.12822253	     -0.05435914	      0.08167041
      0.66831722	     -2.95697565	    -12.36056207	     50.84879334	      0.90706935	     -0.06031351	      0.15472253	      0.05744707	      0.09017434	      0.05744707	      0.08519253	      0.13584861	      0.12816468	      0.00187516	      0.12822569	     -0.05503194	      0.08166852
      0.67358219	     -3.02325898	    -12.81455601	     50.85217308	      0.38026884	     -0.06099088	      0.15468435	      0.05883637	      0.09016582	      0.05883637	      0.08518482	      0.13633244	      0.12817030	      0.00125936	      0.12823092	     -0.05570545	      0.08166734
      0.68002681	     -3.10754722	    -13.33669113	     50.85262188	     -0.23564764	     -0.06182007	      0.15463289	      0.06058208	      0.09015359	      0.06058208	      0.08517362	      0.13692388	      0.12818027	      0.00050491	      0.12824031	     -0.05652978	      0.08166683
      0.68528523	     -3.17872949	    -13.73215421	     50.85009277	     -0.72486091	     -0.06249650	      0.15458982	      0.06203339	      0.09014233	      0.06203339	      0.08516323	      0.13742196	      0.12819105	     -0.00011557	      0.12825046	     -0.05720019	      0.08166703
      0.69054366	     -3.25191526	    -14.09864069	     50.84502389	     -1.20065164	     -0.06317293	      0.15454301	      0.06344950	      0.09013020	      0.06344950	      0.08515198	      0.13794834	      0.12820422	     -0.00074948	      0.12826285	     -0.05787188	      0.08166775
      0.69580208	     -3.32695230	    -14.43635372	     50.83748515	     -1.66443992	     -0.06384939	      0.15449526	      0.06484067	      0.09011741	      0.06484067	      0.08514006	      0.13848359	      0.12821979	     -0.00139199	      0.12827745	     -0.05854486	      0.08166904
      0.70221582	     -3.42076343	    -14.80976798	     50.82505402	     -2.20715035	     -0.06467446	      0.15443301	      0.06650388	      0.09010094	      0.06650388	      0.08512463	      0.13912772	      0.12824209	     -0.00216918	      0.12829817	     -0.05936520	      0.08167144
      0.70713274	     -3.49422557	    -15.06767432	     50.81320925	     -2.60801470	     -0.06530699	      0.15438491	      0.06767990	      0.09008794	      0.06767990	      0.08511240	      0.13964936	      0.12826160	     -0.00276858	      0.12831616	     -0.05999425	      0.08167387
      0.71204966	     -3.56890080	    -15.30363863	     50.79945034	     -2.98390762	     -0.06593952	      0.15433405	      0.06880908	      0.09007474	      0.06880908	      0.08509994	      0.14019681	      0.12828314	     -0.00337350	      0.12833590	     -0.06062374	      0.08167679
      0.71838608	     -3.66675651	    -15.57745655	     50.77911054	     -3.42915250	     -0.06675466	      0.15426760	      0.07025899	      0.09005723	      0.07025899	      0.08508331	      0.14094260	      0.12831373	     -0.00416032	      0.12836379	     -0.06143601	      0.08168126
      0.72384983	     -3.75244800	    -15.78526584	     50.75940711	     -3.77817692	     -0.06745756	      0.15420741	      0.07151667	      0.09004149	      0.07151667	      0.08506832	      0.14163209	      0.12834250	     -0.00484881	      0.12838991	     -0.06213674	      0.08168569
      0.72931358	     -3.83919711	    -15.96404256	     50.73785778	     -4.10792069	     -0.06816049	      0.15414750	      0.07280913	      0.09002506	      0.07280913	      0.08505262	      0.14235674	      0.12837330	     -0.00554465	      0.12841780	     -0.06283750	      0.08169061
      0.73477733	     -3.92683397	    -16.10934861	     50.71453625	     -4.42836972	     -0.06886343	      0.15408462	      0.07416484	      0.09000781	      0.07416484	      0.08503610	      0.14311052	      0.12840599	     -0.00624118	      0.12844735	     -0.06353829	      0.08169599
      0.74024108	     -4.01516092	    -16.21573269	     50.68944068	     -4.76165237	     -0.06956637	      0.15402253	      0.07556750	      0.08998967	      0.07556750	      0.08501869	      0.14390425	      0.12844040	     -0.00693811	      0.12847844	     -0.06423915	      0.08170182
      0.74570482	     -4.10395220	    -16.27871330	     50.66246528	     -5.11680445	     -0.07026931	      0.15395741	      0.07702472	      0.08997065	      0.07702472	      0.08500042	      0.14472962	      0.12847640	     -0.00763196	      0.12851103	     -0.06493992	      0.08170809
      0.75116857	     -4.19295880	    -16.29373970	     50.63344801	     -5.51319360	     -0.07097225	      0.15389359	      0.07855880	      0.08995062	      0.07855880	      0.08498116	      0.14558146	      0.12851390	     -0.00831490	      0.12854511	     -0.06564014	      0.08171484
      0.75663232	     -4.28190862	    -16.25766565	     50.60213997	     -5.95425755	     -0.07167518	      0.15382659	      0.08009099	      0.08992966	      0.08009099	      0.08496098	      0.14648486	      0.12855281	     -0.00899607	      0.12858071	     -0.06634022	      0.08172210
      0.76209607	     -4.37052156	    -16.17072704	     50.56828994	     -6.44442448	     -0.07237813	      0.15376137	      0.08160980	      0.08990789	      0.08160980	      0.08494000	      0.14743477	      0.12859305	     -0.00968059	      0.12861791	     -0.06704050	      0.08172995
